# xmcd
#
# Track frame offsets:
#	150
#	15926
#	32177
#	49117
#	67922
#	83388
#	98933
#	115773
#	132443
#	151804
#	170433
#	186470
#	204243
#	220253
#
# Disc length: 3118 seconds
#
# Revision: 0
# Processed by: cddbd v1.5.1PL2 Copyright (c) Steve Scherf et al.
# Submitted via: dBpowerAMP V4.0
#
DISCID=b00c2c0e
DTITLE=FRANCK e EDUARDO - POR AMOR
DYEAR=1900
DGENRE=Country
TTITLE0=É FATAL
TTITLE1=DA BOCA PRA FORA
TTITLE2=POR AMOR
TTITLE3=PRA SEMPRE TE AMAREI
TTITLE4=DEPOIS QUE TE PERDI
TTITLE5=SUFOCADO DE PAIXÃO
TTITLE6=MEU SERTÃO MINHA VIDA
TTITLE7=LEMBRANÇAS DO PASSADO
TTITLE8=MENINA DA ALDEIA
TTITLE9=LOUCO POR AMOR
TTITLE10=TREM QUE PULA
TTITLE11=DANÇO DE TUDO
TTITLE12=SAUDADE VONTADE
TTITLE13=CHEIROS E GOSTOS
EXTD=LEONARDO
EXTT0=
EXTT1=
EXTT2=
EXTT3=
EXTT4=
EXTT5=
EXTT6=
EXTT7=
EXTT8=
EXTT9=
EXTT10=
EXTT11=
EXTT12=
EXTT13=
PLAYORDER=
